<?xml version="1.0" encoding="UTF-8"?>
<svg id="_레이어_1" data-name="레이어_1" xmlns="http://www.w3.org/2000/svg" version="1.1" viewBox="0 0 1140 306">
  <!-- Generator: Adobe Illustrator 29.8.3, SVG Export Plug-In . SVG Version: 2.1.1 Build 3)  -->
  <path d="M311,18c1,.36,2.19-1,2.5-1h48c.11,0,1.5,1.39,1.5,1.5v268c0,.11-1.39,1.5-1.5,1.5h-50l-3.94-4.06-117.69-178.3c-1.14-2.34-3.44-2.13-4.93-.21-2.27,2.93,0,6.69.11,10.03,1.86,55.65-1.53,112.33,0,168.1.44,1.27-1.78,4.45-2.55,4.45h-49c-.11,0-1.5-1.39-1.5-1.5V19.5c0-.31,1.36-1.5,1-2.5h50.5c.87,0,6.3,7.28,7.32,8.68l114.69,174.31c1.04,1.94,5.49.94,5.49-.49V18Z"/>
  <path d="M869.5,288c-3.47-.98.47-4.36,1.04-5.96,26.57-74.89,53.92-150.77,81.19-225.8,3.49-9.62,6.08-19.79,9.75-29.25.78-2.01,3.39-8.93,4.51-9.49.84-.42,1.58-.44,2.47-.53,17.45-1.91,38.27,1.56,56.1,0,5.1.29,5.49,9.35,6.91,13.09,31.44,82.99,59.34,166.92,89.81,250.19.32.86,5.18,7.77,1.23,7.77h-52c-2.17,0-7.96-22.04-10.02-24.98-.85-5.92-4.12-11.58-6.02-16.98-2.07-5.88-.27-9.41-8.91-10.09l-102.6.49c-1.74.74-3.42,2.04-4.19,3.81-1.68,3.87-2.77,10.63-4.22,14.78-2.43,6.96-5.5,13.82-8.06,20.94-.62,1.71-2.73,12.02-4.98,12.02h-52ZM998.9,83.11c-7.41-1.21-5.74,2.51-7.45,6.84-12.21,30.98-22.97,63.54-32.93,95.07-1.14,3.62-4.88,6.23.13,9.83l75.37-.33,1.57-2.51-36.69-108.91Z"/>
  <path d="M467.5,212c3.36.9,2.14,6.82,2.69,9.31.17.78,3.33,6.94,3.98,8.02,9.73,16.14,25.45,19.79,43.33,18.68,19.43-1.21,36.07-12.63,36.58-33.5.45-18.19-12.54-28.65-28.05-35.04-1.31-.54-3.01-.24-4.27-.73-51.81-19.84-112.15-22.13-107.81-95.28,1.33-22.47,15.11-43.13,34.12-54.88,7.39-4.56,22.49-10.67,30.63-12.37,6.31-1.32,15.32-.83,21.64-2.2.79-.17.52-1.82,1.3-2.01,1.52-.36,14.53-.18,15.12.29,4.51,3.59,15.99,2.61,22.52,3.92,10.98,2.2,30.19,11.62,39.2,18.8,15.8,12.61,25.19,34.26,26.52,53.98h-54.5c-.4,0-1.84,2.03-3.04.04-.82-1.36-.35-4.18-.9-6.1-1.25-4.37-4.45-10.13-7.54-13.46-19.34-20.87-66.62-18.24-70.95,15.09-2.34,18.05,9.88,29.05,24.94,35.92,31.89,14.55,72.26,16.43,98.02,42.98,23.92,24.65,21.72,65.8,2.39,92.44-35.76,49.3-135.92,45.56-168.84-5-5.46-8.38-12.03-25.52-11.67-35.43.04-1.07.56-3.49,1.59-3.49h53Z"/>
  <path d="M842,18l.82,38.74c.4.8-1,2.26-1.32,2.26h-69c-.36,0-3.5,2.25-3.5,2.5v225.5c-1-.36-2.19,1-2.5,1h-48c-.11,0-1.5-1.39-1.5-1.5V61.5c0-.25-3.14-2.5-3.5-2.5h-69c-.11,0-1.5-1.39-1.5-1.5V20.5c0-.31,1.36-1.5,1-2.5h198Z"/>
  <path d="M24,18h49.5c.11,0,1.5,1.39,1.5,1.5v267c0,.11-1.39,1.5-1.5,1.5H25.5c-.14,0-1.79-1.56-1.99-2.01-1.21-87.37-.1-175.05-.56-262.54l1.05-5.45Z"/>
</svg>