<?xml version="1.0" encoding="UTF-8"?>
<svg id="_레이어_1" data-name="레이어 1" xmlns="http://www.w3.org/2000/svg" viewBox="380 275 460 150">
  <path d="M397.54,410.41v-118.33h21.58v118.33h-21.58Z"/>
  <path d="M441.63,410.41v-118.33h22.58l42.59,81.3v-81.3h21.3v118.33h-22.29l-42.88-81.3v81.3h-21.3Z"/>
  <path d="M544.91,373.85h21.3c.81,6.48,3.16,11.29,7.05,14.42,3.89,3.13,9.52,4.7,16.88,4.7,6.27,0,10.99-1.26,14.17-3.78,3.18-2.52,4.77-6.24,4.77-11.17,0-7.18-9.14-13.12-27.42-17.83-.24-.05-.45-.11-.64-.16-.48-.11-1.21-.29-2.21-.56-9.78-2.41-16.76-5.11-20.94-8.11-3.7-2.68-6.53-6.28-8.48-10.8-1.95-4.52-2.92-9.87-2.92-16.03,0-11.51,3.47-20.34,10.4-26.47,6.93-6.13,16.95-9.2,30.06-9.2,12.25,0,21.83,3.27,28.74,9.8,6.91,6.53,10.55,15.75,10.93,27.63h-20.73c-.38-5.73-2.33-10.09-5.84-13.09-3.51-3-8.52-4.5-15.03-4.5-5.65,0-10.01,1.25-13.07,3.74-3.06,2.49-4.59,6.04-4.59,10.64,0,6.27,5.96,10.95,17.88,14.06,3.23.86,5.75,1.53,7.55,2.01,7.64,2.2,13.07,3.91,16.27,5.14,3.21,1.23,5.99,2.6,8.37,4.1,4.27,2.68,7.48,6.23,9.62,10.64s3.21,9.71,3.21,15.87c0,12.32-3.68,21.86-11.04,28.64-7.36,6.78-17.74,10.16-31.13,10.16s-23.55-3.46-31.05-10.36c-7.5-6.91-11.54-16.74-12.11-29.48Z"/>
  <path d="M668.77,410.41v-97.2h-31.13v-21.13h83.62v21.13h-30.91v97.2h-21.58Z"/>
  <path d="M755.03,292.08h24.93l37.82,118.33h-22.65l-7.12-24.34h-40.67l-6.91,24.34h-22.72l37.32-118.33ZM767.56,315.77l-14.53,50.37h29.13l-14.6-50.37Z"/>
</svg>