<?xml version="1.0" encoding="UTF-8"?>
<svg id="_레이어_1" data-name="레이어_1" xmlns="http://www.w3.org/2000/svg" version="1.1" viewBox="0 0 177 177">
  <!-- Generator: Adobe Illustrator 29.8.3, SVG Export Plug-In . SVG Version: 2.1.1 Build 3)  -->
  <defs>
    <style>
      .st0 {
        fill: #854923;
      }

      .st0, .st1, .st2, .st3, .st4, .st5 {
        fill-rule: evenodd;
      }

      .st6 {
        fill: #fff;
      }

      .st1 {
        fill: #efb545;
      }

      .st7 {
        fill: #3c71b6;
      }

      .st8 {
        fill: none;
        stroke: #1b1b1b;
        stroke-miterlimit: 22.93;
        stroke-width: 1.36px;
      }

      .st2 {
        fill: #64b4d7;
      }

      .st3 {
        fill: #bcc32d;
      }

      .st4 {
        fill: #5d2e26;
      }

      .st5 {
        fill: #d52a2f;
      }
    </style>
  </defs>
  <g>
    <path class="st0" d="M44.16,129.31c-1.13-9.66,13.94-9.88,12.66.06l-12.66-.06h0ZM127.88,116.02c4,.03,8.89,2.55,11.04,4.67l-3.3,4.84c-3.36-1.85-8.24-5.57-12.01-2.1-1.11,1.03-1.54,3.03.48,4.51,2.04,1.5,6.13,2.38,9.58,4.13,3.25,1.65,5.92,4.05,5.77,8.46-.21,6.08-6.28,8.88-11.65,8.93-5.31.05-10.55-2.58-13.22-7.41l5.4-2.9c2.22,3.04,4.51,5.08,8.7,4.84,1.77-.1,3.98-1.62,4.11-3.39.31-4.17-8.49-5.47-11.12-6.69-2.67-1.24-6.09-5.09-5.88-8.54.35-5.91,5.83-9.39,12.09-9.35h0ZM96.85,109.25l6.45-1.61v9.27h8.3v5.56h-8.3v16.52c0,3.26,1.44,5.16,9.04,3.75l.78,5.12c-5.9,2.82-16.28,1.93-16.28-6.13v-19.26h-4.68v-5.56h4.68v-7.66h0ZM67.53,118.7l1.74,5.35c1.29-.23,15.11-7.01,15.13,4.84v.28c-2.01-1.62-4.59-2.59-7.4-2.59-6.43,0-11.64,5.08-11.64,11.34s5.21,11.34,11.64,11.34c2.94,0,5.63-1.07,7.68-2.82v.62s-.04,1.76-.04,1.76l5.79-.08c.33-4.5.07-9.93.07-14.54,0-7.4.42-12.42-5.68-16.2-6.43-3.98-12.77-.46-17.27.7h0ZM84.53,137.23v.94c-.18,3.19-2.91,5.72-6.24,5.72s-6.26-2.73-6.26-6.1,2.8-6.1,6.26-6.1c3.26,0,5.94,2.43,6.24,5.54h0ZM44.13,134.32l15.97-.08c4.1-.02,3.44-.45,3.56-4.78-.1-7.01-3.76-12.18-10.94-13.07-4.7-.58-9.68.98-11.91,3.54-3.25,3.72-3.1,6.91-3.24,12.99-.19,8.72,1.44,16.02,12.12,16.49,5.46.24,11.38-2.15,12.51-6.63l-5.56-2.66c-2.54,3.37-6.18,5.12-10.18,2.38-2.39-1.64-2.51-4.56-2.32-8.19h0Z"/>
    <path class="st4" d="M49.35,84.92l-2.02,1.72s-.81-2.01-3.05-2.01-3.57.85-3.57,3.35v3.5c0,.94.39,3.42,2.92,3.42s3.65-1.98,3.65-1.98l2.15,1.63s-1.69,3.09-5.72,3.09-6.1-2.91-6.1-5.82c0-2.55.09-2.07.09-4.55s1.97-4.94,5.2-5.28c3.23-.34,5.58,1.22,6.45,2.91h0Z"/>
    <path class="st4" d="M65.73,82.26h3.05s-.04,6.91-.04,8.64.67,4.08,3.01,4.08,3.27-1.07,3.27-4v-8.64h3.05v15.22h-2.62v-1.38s-1.8,1.55-4.47,1.55-5.24-2.32-5.24-5.5-.04-9.97,0-9.97h0Z"/>
    <path class="st3" d="M122.8,97.74h-3.05s.04-6.91.04-8.64-.67-4.08-3.01-4.08-3.27,1.61-3.27,4.38v8.26h-3.05v-15.22h2.62v1.38s.83-1.66,4.15-1.55c3.31.11,5.57,2.32,5.57,5.5s.04,9.97,0,9.97h0Z"/>
    <path class="st4" d="M56.13,81.96h1.57c2.9,0,5.28,2.38,5.28,5.29v5.01c0,2.91-2.37,5.29-5.28,5.29h-1.57c-2.9,0-5.28-2.38-5.28-5.29v-5.01c0-2.91,2.37-5.29,5.28-5.29h0ZM56.35,84.63h1.22c1.46,0,2.65,1.46,2.65,3.25v3.76c0,1.79-1.19,3.25-2.65,3.25h-1.22c-1.46,0-2.65-1.46-2.65-3.25v-3.76c0-1.79,1.19-3.25,2.65-3.25h0Z"/>
    <path class="st5" d="M81.03,82.35v21.32h3.31v-7.09s.68,1.08,3.7,1.08,5.5-2.58,5.5-5.24v-5.11c0-1.5-1.28-4.99-4.69-5.16-3.4-.17-4.43.73-4.9,1.63v-1.46l-2.92.04h0ZM86.73,84.63h1.51c1.46,0,2.65,1.46,2.65,3.25v3.77c0,1.79-1.19,3.25-2.65,3.25h-1.51c-1.46,0-2.65-1.46-2.65-3.25v-3.77c0-1.79,1.19-3.25,2.65-3.25h0Z"/>
    <path class="st1" d="M96.55,83.38l1.25,2.06s1.33-1.03,3.74-.82c2.41.21,2.97,1.85,2.92,3.26,0,0-1.12-.86-3.48-.86s-4.64,1.55-5.11,3.44c-.47,1.89-.43,6.32,3.35,7.05,3.78.73,5.55-1.33,5.55-1.33v1.42h2.58v-10.83c0-5.41-7.52-6.33-10.79-3.39h0ZM101.15,89.5h.39c1.42,0,2.58,1.16,2.58,2.57v.52c0,1.42-1.16,2.58-2.58,2.58h-.39c-1.42,0-2.58-1.16-2.58-2.58v-.52c0-1.42,1.16-2.57,2.58-2.57h0Z"/>
    <path class="st2" d="M134.95,83.33c.61-.58,1.68-1.68,3.89-.94l.04,2.28s-1.48-.52-2.51.48c.34.72.54,1.53.54,2.39,0,2.93-2.27,5.33-5.03,5.33-1.77,0-2.35.12-3.93,2.36-.25.47.19.28.19.28.97-.57,4.18-.79,6.25-.39,2.04.36,4.11,2.19,4.18,4.7.07,2.5-3.77,4.8-3.77,4.8l-1.31-2.19c1.26-1.26,2.94-2.12,1.34-3.87-1.6-1.76-5.54-.8-7.39-.39-1.85.41-2.26-1.6-2.09-3.12.17-1.52,1.64-2.61,2.21-3.02-1.4-.95-2.34-2.61-2.34-4.49,0-2.93,2.26-5.33,5.03-5.33h1.63c1.15,0,2.22.42,3.07,1.11h0ZM130.84,84.65h.45c1.65,0,3,1.22,3,2.71v.54c0,1.49-1.35,2.71-3,2.71h-.45c-1.65,0-3-1.22-3-2.71v-.54c0-1.49,1.35-2.71,3-2.71h0Z"/>
  </g>
  <polygon class="st7" points="139.85 70.05 88.71 53.43 37.15 70.05 37.15 .18 139.85 .18 139.85 70.05"/>
  <g>
    <path class="st6" d="M64.79,32.91h-9.09v7.62h-3.71v-7.62h-8.94v-2.98h21.73v2.98ZM45.55,17.91h16.73v9.69h-16.73v-9.69ZM58.55,24.67v-3.81h-9.35v3.81h9.35Z"/>
    <path class="st6" d="M87.76,38.01h-21.73v-3.03h5.39v-3.37h-2.95v-8.19h13.19v-2.18h-13.21v-2.98h16.89v8.11h-13.13v2.23h13.68v3.01h-3.21v3.37h5.1v3.03ZM78.98,34.98v-3.37h-3.94v3.37h3.94Z"/>
    <path class="st6" d="M93.08,24.1h2.59v-5.23h3.47v16.17h-9.58v-16.17h3.52v5.23ZM95.68,32.05v-5.05h-2.59v5.05h2.59ZM100.78,17.1h3.52v8.65h1.76v-8.96h3.57v23.78h-3.57v-11.79h-1.76v10.72h-3.52v-22.41Z"/>
    <path class="st6" d="M123.38,20.91h-7.02v4.34c3.98-.03,6.37-.22,9.01-.76l.39,2.88c-2.99.71-5.88.78-11.09.78h-2.02v-10.16h10.72v2.93ZM114.89,29.46h15.96v6.79h-12.25v1.09h12.87v2.98h-16.55v-6.81h12.2v-1.09h-12.23v-2.95ZM127.11,16.79h3.73v4.33h3.08v3.03h-3.08v4.43h-3.73v-11.79Z"/>
  </g>
  <path class="st8" d="M42.91.23h91.17c22.78,0,41.42,18.64,41.42,41.42v93.76c0,22.78-18.64,41.42-41.42,41.42H42.91c-22.78,0-41.42-18.64-41.42-41.42V41.64C1.5,18.87,20.13.23,42.91.23h0Z"/>
</svg>