<?xml version="1.0" encoding="UTF-8"?>
<svg id="_레이어_1" data-name="레이어_1" xmlns="http://www.w3.org/2000/svg" version="1.1" viewBox="0 0 104 104">
  <!-- Generator: Adobe Illustrator 29.8.3, SVG Export Plug-In . SVG Version: 2.1.1 Build 3)  -->
  <defs>
    <style>
      .st0 {
        fill: #854923;
      }

      .st0, .st1, .st2, .st3, .st4, .st5 {
        fill-rule: evenodd;
      }

      .st1 {
        fill: #efb545;
      }

      .st2 {
        fill: #64b4d7;
      }

      .st3 {
        fill: #bcc32d;
      }

      .st4 {
        fill: #5d2e26;
      }

      .st5 {
        fill: #d52a2f;
      }
    </style>
  </defs>
  <path class="st0" d="M10.48,64.84c-1.05-9.04,13.06-9.25,11.85.06l-11.85-.06h0ZM88.87,52.39c3.74.03,8.33,2.39,10.34,4.38l-3.09,4.53c-3.15-1.73-7.71-5.22-11.24-1.96-1.04.96-1.44,2.84.45,4.23,1.91,1.4,5.74,2.23,8.97,3.87,3.04,1.54,5.55,3.8,5.4,7.92-.2,5.69-5.88,8.31-10.9,8.36-4.97.05-9.88-2.41-12.38-6.94l5.06-2.72c2.08,2.85,4.22,4.75,8.15,4.53,1.66-.09,3.72-1.51,3.85-3.17.29-3.9-7.95-5.12-10.41-6.26-2.5-1.16-5.7-4.77-5.51-8,.33-5.53,5.46-8.79,11.32-8.75h0ZM59.81,46.05l6.04-1.51v8.68h7.77v5.21h-7.77v15.47c0,3.06,1.34,4.83,8.47,3.51l.73,4.79c-5.53,2.64-15.24,1.81-15.24-5.74v-18.04h-4.38v-5.21h4.38v-7.17h0ZM32.37,54.9l1.63,5.01c1.21-.21,14.15-6.57,14.16,4.53v.26c-1.88-1.52-4.3-2.43-6.93-2.43-6.02,0-10.89,4.75-10.89,10.61s4.88,10.61,10.89,10.61c2.76,0,5.27-1,7.19-2.64v.58s-.04,1.65-.04,1.65l5.42-.07c.31-4.22.06-9.3.06-13.61,0-6.92.39-11.63-5.32-15.16-6.02-3.72-11.96-.43-16.17.66h0ZM48.29,72.25v.88c-.17,2.99-2.72,5.36-5.84,5.36s-5.86-2.56-5.86-5.71,2.63-5.71,5.86-5.71c3.05,0,5.56,2.28,5.84,5.18h0ZM10.46,69.53l14.95-.07c3.84-.02,3.22-.42,3.33-4.48-.1-6.57-3.52-11.41-10.25-12.23-4.4-.54-9.06.91-11.15,3.32-3.04,3.49-2.91,6.47-3.03,12.16-.18,8.16,1.35,15,11.35,15.44,5.11.23,10.66-2.02,11.71-6.21l-5.21-2.49c-2.38,3.15-5.78,4.79-9.53,2.23-2.24-1.53-2.35-4.27-2.17-7.67h0Z"/>
  <path class="st4" d="M15.35,23.27l-1.89,1.61s-.76-1.88-2.86-1.88-3.34.79-3.34,3.14v3.27c0,.88.36,3.21,2.74,3.21s3.42-1.85,3.42-1.85l2.01,1.53s-1.58,2.9-5.35,2.9-5.71-2.73-5.71-5.45c0-2.38.08-1.94.08-4.26s1.85-4.63,4.87-4.94c3.02-.31,5.22,1.14,6.04,2.73h0Z"/>
  <path class="st4" d="M30.68,20.79h2.86s-.04,6.47-.04,8.09.63,3.82,2.82,3.82,3.06-1,3.06-3.74v-8.09h2.86v14.25h-2.46v-1.29s-1.69,1.45-4.18,1.45-4.91-2.17-4.91-5.15-.04-9.34,0-9.34h0Z"/>
  <path class="st3" d="M84.11,35.27h-2.86s.04-6.47.04-8.09-.63-3.82-2.82-3.82-3.06,1.51-3.06,4.1v7.74h-2.86v-14.25h2.46v1.29s.78-1.55,3.88-1.45c3.1.1,5.21,2.17,5.21,5.15s.04,9.34,0,9.34h0Z"/>
  <path class="st4" d="M21.7,20.5h1.47c2.72,0,4.94,2.23,4.94,4.96v4.69c0,2.73-2.22,4.96-4.94,4.96h-1.47c-2.72,0-4.94-2.23-4.94-4.96v-4.69c0-2.73,2.22-4.96,4.94-4.96h0ZM21.9,23h1.15c1.37,0,2.49,1.37,2.49,3.05v3.52c0,1.67-1.12,3.05-2.49,3.05h-1.15c-1.37,0-2.49-1.37-2.49-3.05v-3.52c0-1.68,1.12-3.05,2.49-3.05h0Z"/>
  <path class="st5" d="M45.01,20.87v19.96h3.1v-6.64s.64,1.01,3.46,1.01,5.15-2.41,5.15-4.91v-4.79c0-1.41-1.2-4.67-4.39-4.83-3.18-.16-4.15.68-4.59,1.53v-1.37l-2.74.04h0ZM50.35,23h1.41c1.37,0,2.49,1.37,2.49,3.05v3.52c0,1.67-1.12,3.05-2.49,3.05h-1.41c-1.37,0-2.49-1.37-2.49-3.05v-3.52c0-1.68,1.12-3.05,2.49-3.05h0Z"/>
  <path class="st1" d="M59.54,21.83l1.17,1.93s1.25-.96,3.5-.76c2.25.2,2.78,1.73,2.74,3.06,0,0-1.05-.81-3.26-.81s-4.35,1.45-4.79,3.22c-.44,1.77-.4,5.91,3.14,6.6,3.54.68,5.19-1.25,5.19-1.25v1.33h2.42v-10.14c0-5.06-7.04-5.92-10.1-3.18h0ZM63.84,27.56h.36c1.33,0,2.41,1.08,2.41,2.41v.48c0,1.33-1.08,2.41-2.41,2.41h-.36c-1.33,0-2.41-1.08-2.41-2.41v-.48c0-1.33,1.08-2.41,2.41-2.41h0Z"/>
  <path class="st2" d="M95.49,21.79c.57-.54,1.57-1.57,3.64-.88l.04,2.13s-1.39-.48-2.35.45c.32.67.5,1.43.5,2.24,0,2.74-2.12,4.99-4.71,4.99-1.65,0-2.2.11-3.68,2.21-.23.44.18.27.18.27.91-.53,3.91-.74,5.85-.36,1.91.34,3.85,2.05,3.92,4.4.07,2.34-3.53,4.49-3.53,4.49l-1.23-2.05c1.18-1.18,2.75-1.98,1.25-3.62-1.5-1.64-5.19-.75-6.92-.36-1.73.39-2.11-1.5-1.96-2.92.16-1.42,1.53-2.45,2.07-2.83-1.31-.89-2.19-2.44-2.19-4.21,0-2.74,2.12-4.99,4.71-4.99h1.53c1.08,0,2.08.39,2.88,1.04h0ZM91.64,23.02h.43c1.55,0,2.81,1.14,2.81,2.54v.51c0,1.39-1.27,2.54-2.81,2.54h-.43c-1.55,0-2.81-1.14-2.81-2.54v-.51c0-1.39,1.27-2.54,2.81-2.54h0Z"/>
</svg>